<?xml version="1.0" encoding="iso-8859-1"?>
<!-- Generator: Adobe Illustrator 18.0.0, SVG Export Plug-In . SVG Version: 6.00 Build 0)  -->
<!DOCTYPE svg PUBLIC "-//W3C//DTD SVG 1.1//EN" "http://www.w3.org/Graphics/SVG/1.1/DTD/svg11.dtd">
<svg version="1.1" id="Capa_1" xmlns="http://www.w3.org/2000/svg" xmlns:xlink="http://www.w3.org/1999/xlink" x="0px" y="0px"
	 viewBox="0 0 459.815 459.815" style="enable-background:new 0 0 459.815 459.815;" xml:space="preserve">
<g>
	<path style="fill:#1f1f1f;" d="M345.444,232.556l-4.832,2.128c-17.819,7.25-41.593-1.695-47.677-6.896c-0.607-0.519-1.187-1.066-1.754-1.626
		c-6.137,7.175-15.135,11.26-24.462,11.26c-7.66,0-12.192-2.403-17.998-4.96l0.008,205.441c0,12.102,9.811,21.913,21.913,21.913
		s21.913-9.81,21.913-21.913V262.752v0h9.46v0v175.151c0,12.102,9.811,21.913,21.913,21.913s21.913-9.81,21.913-21.913
		C345.841,249.687,345.444,232.556,345.444,232.556z"/>
	<path style="fill:#1f1f1f;" d="M333.175,87.755c-18.448,0-68.273,0-83.315,0c-15.858,0-30.583,9.212-37.512,23.465
		c-5.026,10.333-10.18,21.52-14.805,31.877c39.946-0.675,37.515-0.722,40.322-0.445c7.739-16.722,7.849-17.549,10.857-18.235v21.17
		c7.08,3.26,12.862,8.879,16.327,15.864l13.935-4.794c5.585-1.923,10.656-3.334,15.973-2.315
		c-12.135-7.965-15.413-24.277-7.533-36.284c7.989-12.182,24.261-15.428,36.29-7.536l2.262,1.484
		C325.527,103.259,328.054,94.787,333.175,87.755z"/>
	<g>
		<path style="fill:#1f1f1f;" d="M279.782,211.81l-18.584,6.195c-2.399,0.825-5.123,1.162-7.142,1.097c-0.294-0.009-0.372,0.395-0.103,0.513
			c8.322,3.648,9.495,3.892,12.772,3.892c6.284,0,12.299-3.271,15.652-8.86L279.782,211.81z"/>
	</g>
	<circle style="fill:#1f1f1f;" cx="297.281" cy="37.846" r="37.846"/>
	<path style="fill:#1f1f1f;" d="M305.018,182.716l-8.617-9.416c-3.24-3.54-8.27-4.823-12.813-3.26l-15.04,5.175c0.011,0.267,0.029,0.532,0.034,0.801
		c0.193,11.399-5.234,21.58-13.719,27.919c3.89,0.614,3.769,0.184,29.093-8.529l11.507,12.574
		C294.504,198.794,297.515,189.564,305.018,182.716z"/>
	<path style="fill:#1f1f1f;" d="M408.511,170.302c-0.405-1.011-7.468-17.974-15.452-35.757c-0.072,0.085-0.138,0.173-0.21,0.258
		c-13.747,16.079-37.792,17.723-53.618,4.191c-1.462-1.25-2.815-2.595-4.053-4.02l-19.231-12.619
		c-5.563-3.65-13.038-2.102-16.689,3.464c-3.652,5.565-2.101,13.037,3.463,16.689l24.042,15.776l-18.906,22.112
		c3.017-2.202,6.593-4.075,10.759-5.508c5.478-1.885,49.12-7.262,49.12-7.262l0.001-0.002c0,0.001,0.001,0.001,0.001,0.002
		l-47.457,20.904c-9.229,4.066-13.416,14.842-9.35,24.072c4.069,9.24,14.854,13.411,24.072,9.35l63.916-28.154
		C407.922,189.834,412.169,179.442,408.511,170.302z"/>
	<path style="fill:#1f1f1f;" d="M348.429,128.237c10.017,8.565,25.089,7.396,33.663-2.631c8.569-10.022,7.391-25.094-2.631-33.663
		c-10.018-8.565-25.089-7.396-33.663,2.631C337.229,104.596,338.405,119.667,348.429,128.237z"/>
	<path style="fill:#1f1f1f;" d="M193.974,211.396c-21.312,0.36-20.208,0.342-34.207,0.578c-9.862,0.167-18.354-6.085-21.525-14.872l-22.531-62.751
		l36.575,53.071c3.187,4.624,8.44,7.378,14.044,7.378c0.096,0,0.193-0.001,0.289-0.002l68.139-1.152
		c9.419-0.159,16.926-7.924,16.767-17.343c-0.16-9.42-7.946-16.906-17.344-16.767l-58.996,0.997L143.8,114.991l33.192,28.452
		l3.52-0.059l-6.433-32.503c-2.2-11.115-11.949-19.148-23.279-19.148c-14.591,0-24.854,0-41.049,0
		c-11.354,0-21.074,8.011-23.279,19.148L50.188,294.201c-1.239,6.26,3.583,12.06,9.898,12.06c5.79,0,13.307,0,21.896,0v131.745
		c0,12.037,9.757,21.795,21.795,21.795c12.037,0,21.795-9.758,21.795-21.795V306.261c3.134,0,6.276,0,9.41,0v131.745
		c0,12.037,9.757,21.795,21.795,21.795c12.037,0,21.795-9.758,21.795-21.795V306.261c8.59,0,16.108,0,21.896,0
		c6.351,0,11.134-5.81,9.898-12.06L193.974,211.396z"/>
	<circle style="fill:#1f1f1f;" cx="130.276" cy="40.106" r="37.642"/>
</g>
<g>
</g>
<g>
</g>
<g>
</g>
<g>
</g>
<g>
</g>
<g>
</g>
<g>
</g>
<g>
</g>
<g>
</g>
<g>
</g>
<g>
</g>
<g>
</g>
<g>
</g>
<g>
</g>
<g>
</g>
</svg>
